<?xml version="1.0" encoding="UTF-8" standalone="no"?>
<!DOCTYPE svg PUBLIC "-//W3C//DTD SVG 1.1//EN" "http://www.w3.org/Graphics/SVG/1.1/DTD/svg11.dtd">
<svg version="1.1" xmlns="http://www.w3.org/2000/svg" xmlns:xl="http://www.w3.org/1999/xlink" xmlns:dc="http://purl.org/dc/elements/1.1/" viewBox="-1435.3214 -678.75 3242.143 1384" width="3242.143" height="1384">
  <defs/>
  <metadata> Produced by OmniGraffle 7.17.2\n2020-08-13 06:53:06 +0000</metadata>
  <g id="Canvas_1" stroke-dasharray="none" fill="none" stroke="none" fill-opacity="1" stroke-opacity="1">
    <title>Canvas 1</title>
    <g id="Canvas_1_Layer_1">
      <title>Layer 1</title>
      <g id="Graphic_14">
        <path d="M 6.151393 -473.5925 C 256.2833 -204.7167 256.2833 231.2167 6.151393 500.0925 C -243.97923 768.9696 -649.5208 768.9696 -899.6514 500.0925 C -1149.7833 231.2167 -1149.7833 -204.7167 -899.6514 -473.5925 C -649.5208 -742.4696 -243.97923 -742.4696 6.151393 -473.5925" fill="white"/>
        <path d="M 6.151393 -473.5925 C 256.2833 -204.7167 256.2833 231.2167 6.151393 500.0925 C -243.97923 768.9696 -649.5208 768.9696 -899.6514 500.0925 C -1149.7833 231.2167 -1149.7833 -204.7167 -899.6514 -473.5925 C -649.5208 -742.4696 -243.97923 -742.4696 6.151393 -473.5925" stroke="gray" stroke-linecap="round" stroke-linejoin="round" stroke-width="7"/>
      </g>
      <g id="Graphic_13">
        <path d="M -1388.8214 32.32143 L -920.8214 32.32143 C -897.0732 32.32143 -877.8214 51.573184 -877.8214 75.32143 L -877.8214 318.32143 C -877.8214 342.06967 -897.0732 361.32143 -920.8214 361.32143 L -1388.8214 361.32143 C -1412.5697 361.32143 -1431.8214 342.06967 -1431.8214 318.32143 L -1431.8214 75.32143 C -1431.8214 51.573184 -1412.5697 32.32143 -1388.8214 32.32143 Z" fill="white"/>
        <path d="M -1388.8214 32.32143 L -920.8214 32.32143 C -897.0732 32.32143 -877.8214 51.573184 -877.8214 75.32143 L -877.8214 318.32143 C -877.8214 342.06967 -897.0732 361.32143 -920.8214 361.32143 L -1388.8214 361.32143 C -1412.5697 361.32143 -1431.8214 342.06967 -1431.8214 318.32143 L -1431.8214 75.32143 C -1431.8214 51.573184 -1412.5697 32.32143 -1388.8214 32.32143 Z" stroke="gray" stroke-linecap="round" stroke-linejoin="round" stroke-width="7"/>
      </g>
      <g id="Graphic_12">
        <path d="M 1271.1514 500.0925 C 1521.2833 231.2167 1521.2833 -204.7167 1271.1514 -473.5925 C 1021.0208 -742.4696 615.4792 -742.4696 365.3486 -473.5925 C 115.2167 -204.7167 115.2167 231.2167 365.3486 500.0925 C 615.4792 768.9696 1021.0208 768.9696 1271.1514 500.0925" fill="white"/>
        <path d="M 1271.1514 500.0925 C 1521.2833 231.2167 1521.2833 -204.7167 1271.1514 -473.5925 C 1021.0208 -742.4696 615.4792 -742.4696 365.3486 -473.5925 C 115.2167 -204.7167 115.2167 231.2167 365.3486 500.0925 C 615.4792 768.9696 1021.0208 768.9696 1271.1514 500.0925" stroke="gray" stroke-linecap="round" stroke-linejoin="round" stroke-width="7"/>
      </g>
      <g id="Graphic_11">
        <path d="M 1292.3214 361.32143 L 1760.3214 361.32143 C 1784.0697 361.32143 1803.3214 342.06967 1803.3214 318.32143 L 1803.3214 75.32143 C 1803.3214 51.573184 1784.0697 32.32143 1760.3214 32.32143 L 1292.3214 32.32143 C 1268.5732 32.32143 1249.3214 51.573184 1249.3214 75.32143 L 1249.3214 318.32143 C 1249.3214 342.06967 1268.5732 361.32143 1292.3214 361.32143 Z" fill="white"/>
        <path d="M 1292.3214 361.32143 L 1760.3214 361.32143 C 1784.0697 361.32143 1803.3214 342.06967 1803.3214 318.32143 L 1803.3214 75.32143 C 1803.3214 51.573184 1784.0697 32.32143 1760.3214 32.32143 L 1292.3214 32.32143 C 1268.5732 32.32143 1249.3214 51.573184 1249.3214 75.32143 L 1249.3214 318.32143 C 1249.3214 342.06967 1268.5732 361.32143 1292.3214 361.32143 Z" stroke="gray" stroke-linecap="round" stroke-linejoin="round" stroke-width="7"/>
      </g>
      <g id="Graphic_10">
        <path d="M 85.75 245.17857 L 285.75 245.17857 C 286.3023 245.17857 286.75 244.73086 286.75 244.17857 L 286.75 -246.82143 C 286.75 -247.3737 286.3023 -247.82143 285.75 -247.82143 L 85.75 -247.82143 C 85.19772 -247.82143 84.75 -247.3737 84.75 -246.82143 L 84.75 244.17857 C 84.75 244.73086 85.19772 245.17857 85.75 245.17857 Z" fill="white"/>
        <path d="M 85.75 245.17857 L 285.75 245.17857 C 286.3023 245.17857 286.75 244.73086 286.75 244.17857 L 286.75 -246.82143 C 286.75 -247.3737 286.3023 -247.82143 285.75 -247.82143 L 85.75 -247.82143 C 85.19772 -247.82143 84.75 -247.3737 84.75 -246.82143 L 84.75 244.17857 C 84.75 244.73086 85.19772 245.17857 85.75 245.17857 Z" stroke="gray" stroke-linecap="round" stroke-linejoin="round" stroke-width="7"/>
      </g>
    </g>
  </g>
</svg>
